# xmcd
#
# Track frame offsets: 
#        150
#        17815
#        35536
#        58132
#        76193
#        93609
#        110079
#        126253
#        151142
#        168099
#        185192
#        201009
#        217106
#        235513
#        253869
#        264865
#        283076
#        305905
#        323071
#        335507
#
# Disc length: 4766 seconds
#
# Revision: 1
# Processed by: cddbd v1.5.2PL0 Copyright (c) Steve Scherf et al.
# Submitted via: ExactAudioCopy v0.99pb4
#
DISCID=25129c14
DTITLE=Various Artist - 100 hits Love CD2
DYEAR=2007
DGENRE=Pop
TTITLE0=The Corrs - Dreams
TTITLE1=The Cars - Drive
TTITLE2=Foreigner - I Want To Know What Love Is
TTITLE3=The Pretenders - I'll Stand By You
TTITLE4=Bangles - If She Knew What She Wants
TTITLE5=Aztec Camera - How Men Are
TTITLE6=Everything But The Girl - I Don't Want To Talk About It
TTITLE7=Shawn Mullins - Lullaby
TTITLE8=Catatonia - Strange Glue
TTITLE9=Fairground Attraction - Find My Love
TTITLE10=Jimmy Nail - Cowboy Dreams
TTITLE11=Linda Ronstadt Featuring Aaron Neville - Don't Know Much
TTITLE12=Chris Rea - Fool (If You Think It's Over)
TTITLE13=Judie Tzuke - Stay With Me 'Till Dawn
TTITLE14=Bread - Baby - I'm A Want You
TTITLE15=Simply Red - Angel
TTITLE16=Luther Vandross - Love The One You're With
TTITLE17=The Pointer Sisters - Slow Hand
TTITLE18=Arethe Franklin - (You Make Me Feel Like) A Natural Woman
TTITLE19=Rose Royce - Wishing On A Star
EXTD=
EXTT0=
EXTT1=
EXTT2=
EXTT3=
EXTT4=
EXTT5=
EXTT6=
EXTT7=
EXTT8=
EXTT9=
EXTT10=
EXTT11=
EXTT12=
EXTT13=
EXTT14=
EXTT15=
EXTT16=
EXTT17=
EXTT18=
EXTT19=
PLAYORDER=
